<svg width="480" height="480" viewBox="0 0 480 480" fill="none" xmlns="http://www.w3.org/2000/svg">
<path d="M433.125 0H356.561C351.387 0 347.186 4.97553 347.186 11.1146C347.186 17.2537 351.387 22.2293 356.561 22.2293H433.125C448.634 22.2293 461.25 37.1862 461.25 55.5731V365.619L309.152 185.293C305.49 180.956 299.553 180.956 295.891 185.293L196.956 302.587L173.291 274.536C171.533 272.452 169.149 271.279 166.663 271.279C164.176 271.279 161.792 272.452 160.031 274.536L21.4929 438.78C19.7351 434.43 18.75 429.563 18.75 424.427V55.5731C18.75 37.1862 31.366 22.2293 46.875 22.2293H285.311C290.49 22.2293 294.686 17.2537 294.686 11.1146C294.686 4.97553 290.49 0 285.311 0H46.875C21.0278 0 0 24.9298 0 55.5731V424.427C0 439.384 5.02075 452.973 13.158 462.976C13.3374 463.228 13.5205 463.476 13.7219 463.714C13.916 463.945 14.1211 464.153 14.3262 464.361C22.7637 474.03 34.2407 480 46.875 480H433.125C458.972 480 480 455.07 480 424.427V55.5731C480 24.9298 458.972 0 433.125 0V0ZM433.125 457.771H46.875C42.5354 457.771 38.4192 456.594 34.7461 454.506L166.659 298.111L190.323 326.162V326.171H190.327L249.796 396.675C253.458 401.017 259.395 401.017 263.053 396.675C266.715 392.333 266.715 385.296 263.053 380.954L210.212 318.308L302.52 208.873L460.928 396.671C461.03 396.797 461.144 396.901 461.25 397.018V424.423C461.25 442.809 448.634 457.771 433.125 457.771V457.771Z" fill="#0707A8"/>
</svg>
