<svg width="481" height="480" viewBox="0 0 481 480" fill="none" xmlns="http://www.w3.org/2000/svg">
<path d="M473 312H471.387C470.744 308.839 469.909 305.721 468.887 302.662L470.28 301.862C472.117 300.801 473.458 299.055 474.007 297.007C474.557 294.958 474.27 292.775 473.211 290.938C473.211 290.938 465.833 277.338 463.882 275.348C462.643 274.109 461.027 273.318 459.288 273.101C457.549 272.884 455.788 273.252 454.282 274.148L452.876 274.96C450.74 272.548 448.46 270.268 446.048 268.132C446.764 266.813 447.364 265.435 447.839 264.012C448.096 262.408 447.86 260.764 447.163 259.296C446.466 257.829 445.339 256.608 443.933 255.795L430.073 247.795C428.236 246.734 426.052 246.447 424.003 246.997C421.954 247.546 420.207 248.887 419.146 250.724L418.346 252.117C415.287 251.095 412.169 250.26 409.008 249.617V248C409.008 245.878 408.165 243.843 406.665 242.343C405.165 240.843 403.13 240 401.008 240H388.367L368.892 212.179L403.53 199.59C405.225 199.025 406.683 197.91 407.67 196.421C408.658 194.932 409.118 193.155 408.978 191.374C408.839 189.592 408.107 187.909 406.899 186.592C405.691 185.276 404.078 184.401 402.315 184.108L354.315 176.108C353.144 175.914 351.944 175.982 350.802 176.308L344.885 178L308.63 128.4C305.356 123.952 301.201 120.225 296.424 117.452C291.648 114.679 286.352 112.918 280.865 112.28C275.021 106.4 264.5 102.832 258.165 104.332C250.274 105.544 204.813 118.589 204.813 118.589L192.004 96.3259L201.746 90.4829L221.734 100.396C222.683 100.867 223.717 101.144 224.774 101.212C225.832 101.281 226.892 101.138 227.894 100.793C228.896 100.448 229.819 99.9073 230.611 99.2024C231.402 98.4975 232.045 97.6424 232.503 96.6869L239.932 81.1869L251.913 63.2149L257.749 65.8089C259.293 66.4958 261.015 66.6762 262.668 66.3243C264.32 65.9724 265.819 65.1062 266.949 63.8499C266.949 63.8499 280.139 48.9609 280.492 47.9999C281.077 46.4423 281.163 44.7414 280.738 43.1329C280.313 41.5244 279.399 40.0877 278.121 39.0219L246.284 12.4889C239.546 6.87375 231.539 2.98843 222.959 1.17031C214.379 -0.647814 205.484 -0.343761 197.048 2.05606C188.612 4.45588 180.889 8.87891 174.55 14.941C168.212 21.0031 163.449 28.5211 160.675 36.8419L156.25 50.1149C138.5 51.9999 121.17 54.8229 103 68.7499C82.1822 84.7069 72.3162 107.424 70.2292 119.983L68.7782 128.683L84.5602 131.315L86.0122 122.609C87.853 111.548 92.573 101.167 99.6977 92.5084C106.822 83.8501 116.101 77.2197 126.6 73.2839C126.5 77.2738 127.383 81.2271 129.172 84.7949C129.194 84.8399 129.217 84.8839 129.24 84.9289L143.899 112.917L140.406 114.417C134.645 116.878 129.733 120.978 126.283 126.207C122.833 131.436 120.996 137.565 121 143.83V163.867L76.1512 144.646C75.0369 144.168 73.8286 143.95 72.6177 144.008C71.4067 144.066 70.2248 144.398 69.1611 144.98C68.0974 145.562 67.1799 146.377 66.4777 147.366C65.7756 148.354 65.3073 149.489 65.1082 150.685L62.1562 168.4C60.4185 178.826 62.1705 189.533 67.1403 198.861C72.1101 208.19 80.0199 215.617 89.6422 219.99L136.254 241.177L52.3742 247.168L53.3072 244.368C53.798 242.904 54.7004 241.612 55.9065 240.648C57.1125 239.684 58.571 239.087 60.1072 238.931L86.8602 236.256L85.2692 220.336L58.5102 223.01C53.9064 223.478 49.5351 225.263 45.9204 228.153C42.3057 231.042 39.6009 234.912 38.1302 239.3L34.7982 249.3L7.06017 256.239C5.0359 256.744 3.28906 258.02 2.19211 259.795C1.09516 261.569 0.734909 263.702 1.18817 265.739C1.58621 267.397 2.49173 268.889 3.77846 270.008C5.06519 271.127 6.66897 271.816 8.36617 271.98L78.1822 279.737L127.523 312.631L126.069 311.792C125.159 311.267 124.154 310.926 123.113 310.789C122.071 310.652 121.012 310.722 119.997 310.994C118.982 311.266 118.031 311.736 117.198 312.376C116.364 313.016 115.665 313.814 115.14 314.724L114.34 316.114C111.281 315.092 108.163 314.257 105.002 313.614V312C105.002 309.878 104.159 307.843 102.659 306.343C101.159 304.843 99.1239 304 97.0022 304H81.0002C78.8784 304 76.8436 304.843 75.3433 306.343C73.843 307.843 73.0002 309.878 73.0002 312V313.613C69.8397 314.256 66.7212 315.091 63.6622 316.113L62.8622 314.72C61.8018 312.883 60.0554 311.542 58.0069 310.993C55.9585 310.443 53.7756 310.73 51.9382 311.789C51.9382 311.789 36.3912 320.959 35.7192 321.85C34.7593 323.107 34.1928 324.621 34.0912 326.199C33.9896 327.778 34.3574 329.352 35.1482 330.722L35.9602 332.128C33.5487 334.264 31.2686 336.544 29.1322 338.956C27.8138 338.24 26.4352 337.64 25.0122 337.165C23.4082 336.908 21.7639 337.144 20.2968 337.841C18.8296 338.538 17.6086 339.665 16.7952 341.071L8.79517 354.934C7.73587 356.771 7.44956 358.954 7.99918 361.003C8.5488 363.051 9.88936 364.797 11.7262 365.858L13.1192 366.658C12.0972 369.717 11.2623 372.835 10.6192 375.996H9.00017C6.87844 375.996 4.84361 376.839 3.34332 378.339C1.84303 379.839 1.00017 381.874 1.00017 383.996V399.996C1.00017 402.118 1.84303 404.152 3.34332 405.653C4.84361 407.153 6.87844 407.996 9.00017 407.996H10.6132C11.2563 411.156 12.0912 414.275 13.1132 417.334L11.7202 418.134C9.88336 419.194 8.5428 420.941 7.99318 422.989C7.44356 425.038 7.72987 427.22 8.78917 429.058C8.78917 429.058 17.5262 444.058 18.0052 444.536C19.2521 445.798 20.882 446.611 22.64 446.848C24.3981 447.086 26.1852 446.734 27.7222 445.848L29.1282 445.036C31.2646 447.447 33.5448 449.727 35.9562 451.864L35.1872 453.195C34.6437 454.104 34.2869 455.113 34.1378 456.162C33.9887 457.21 34.0502 458.278 34.3187 459.303C34.5873 460.328 35.0574 461.289 35.7017 462.13C36.3461 462.971 37.1516 463.675 38.0712 464.201L51.9312 472.201C53.7686 473.261 55.9521 473.548 58.0012 472.999C60.0504 472.45 61.7974 471.109 62.8582 469.272L63.6582 467.879C66.7172 468.901 69.8357 469.736 72.9962 470.379V472C72.9962 474.122 73.839 476.156 75.3393 477.657C76.8396 479.157 78.8744 480 80.9962 480H96.9962C99.1179 480 101.153 479.157 102.653 477.657C104.153 476.156 104.996 474.122 104.996 472V470.387C108.157 469.744 111.275 468.909 114.334 467.887L115.134 469.28C116.195 471.117 117.941 472.457 119.989 473.007C122.038 473.556 124.221 473.27 126.058 472.211C126.058 472.211 141.605 463.041 142.277 462.15C143.237 460.892 143.803 459.379 143.905 457.8C144.007 456.222 143.639 454.648 142.848 453.278L142.036 451.872C144.448 449.735 146.728 447.455 148.864 445.044L150.195 445.813C151.105 446.356 152.113 446.713 153.162 446.862C154.211 447.011 155.279 446.95 156.304 446.681C157.328 446.413 158.289 445.943 159.13 445.298C159.971 444.654 160.675 443.848 161.201 442.929L169.201 429.066C170.26 427.228 170.547 425.046 169.997 422.997C169.448 420.949 168.107 419.202 166.27 418.142L164.877 417.342C165.899 414.283 166.734 411.164 167.377 408.004H169C171.122 408.004 173.157 407.161 174.657 405.661C176.157 404.16 177 402.126 177 400.004V384C177 381.878 176.157 379.843 174.657 378.343C173.157 376.843 171.122 376 169 376H167.384C167.043 374.326 166.638 372.665 166.19 371.016L171.216 368H249C250.051 368 251.091 367.793 252.062 367.391C253.032 366.989 253.914 366.4 254.657 365.657L278.657 341.657C279.4 340.914 279.989 340.032 280.391 339.061C280.793 338.091 281 337.05 281 336V260L303.072 243.442L325.353 273.442C323.429 274.035 321.8 275.333 320.791 277.075L312.791 290.938C311.732 292.775 311.446 294.958 311.995 297.007C312.545 299.055 313.885 300.801 315.722 301.862L317.115 302.662C316.093 305.721 315.258 308.839 314.615 312H313C310.878 312 308.844 312.843 307.343 314.343C305.843 315.843 305 317.878 305 320V336C305 338.122 305.843 340.156 307.343 341.657C308.844 343.157 310.878 344 313 344H314.613C315.256 347.16 316.091 350.279 317.113 353.338L315.72 354.138C313.883 355.198 312.543 356.945 311.993 358.993C311.444 361.042 311.73 363.224 312.789 365.062C312.789 365.062 321.526 380.062 322.005 380.54C323.252 381.802 324.882 382.615 326.64 382.852C328.398 383.09 330.185 382.738 331.722 381.852L333.128 381.04C335.265 383.451 337.545 385.731 339.956 387.868L339.187 389.199C338.644 390.108 338.287 391.117 338.138 392.166C337.989 393.214 338.05 394.282 338.319 395.307C338.587 396.332 339.057 397.293 339.702 398.134C340.346 398.975 341.152 399.679 342.071 400.205L355.931 408.205C357.769 409.265 359.952 409.552 362.001 409.003C364.05 408.454 365.797 407.113 366.858 405.276L367.658 403.883C370.717 404.905 373.836 405.74 376.996 406.383V408C376.996 410.122 377.839 412.156 379.339 413.657C380.84 415.157 382.874 416 384.996 416H400.996C403.118 416 405.153 415.157 406.653 413.657C408.153 412.156 408.996 410.122 408.996 408V406.387C412.157 405.744 415.275 404.909 418.334 403.887L419.134 405.28C420.195 407.117 421.941 408.457 423.989 409.007C426.038 409.556 428.221 409.27 430.058 408.211C430.058 408.211 443 401.333 446.285 398.15C448.693 395.817 448.427 391.995 446.856 389.278L446.044 387.872C448.456 385.735 450.736 383.455 452.872 381.044L454.203 381.813C455.113 382.356 456.121 382.713 457.17 382.862C458.219 383.011 459.287 382.95 460.312 382.681C461.336 382.413 462.297 381.943 463.138 381.298C463.979 380.654 464.683 379.848 465.209 378.929L473.209 365.066C474.268 363.228 474.555 361.046 474.005 358.997C473.456 356.949 472.115 355.202 470.278 354.142L468.885 353.342C469.907 350.283 470.742 347.164 471.385 344.004H473C475.122 344.004 477.157 343.161 478.657 341.661C480.157 340.16 481 338.126 481 336.004V320C481 317.878 480.157 315.843 478.657 314.343C477.157 312.843 475.122 312 473 312ZM361.552 322.172L379.578 346.44C380.834 348.13 382.705 349.257 384.786 349.576C386.866 349.896 388.989 349.382 390.694 348.147L413.694 331.478C414.547 330.86 415.27 330.079 415.821 329.181C416.371 328.283 416.739 327.285 416.903 326.245C417.067 325.204 417.024 324.141 416.776 323.117C416.529 322.093 416.081 321.128 415.459 320.278L398 296.393C404.314 297.372 410.192 300.213 414.881 304.554C419.569 308.894 422.855 314.536 424.318 320.755C425.78 326.975 425.352 333.49 423.088 339.465C420.825 345.44 416.829 350.603 411.612 354.292C406.396 357.982 400.197 360.03 393.809 360.174C387.421 360.318 381.136 358.552 375.759 355.101C370.381 351.651 366.156 346.673 363.625 340.807C361.095 334.94 360.373 328.451 361.553 322.172H361.552ZM397.802 323.236L387.702 330.552L339.979 266.3L350.873 259.039L397.802 323.236ZM353.869 218.619L364.646 234.019L356.739 239.952L356.639 239.814L344.184 222.775L353.869 218.619ZM341.422 246.107L330.422 253.436L298.907 211.008L310.237 203.455L341.422 246.107ZM367.663 252.114L367.518 251.863L373.827 247.13L375.765 249.897C373.615 250.371 371.478 250.914 369.371 251.565C368.801 251.742 368.231 251.925 367.663 252.114ZM353.463 192.188L368.91 194.762L334.493 209.517L327.293 199.667L353.463 192.188ZM295.71 137.841L323.574 175.962L314.702 182.441L286.417 143.746C288.832 139.5 288.998 132.273 288.99 131.639C291.608 133.255 293.89 135.361 295.711 137.841H295.71ZM203.2 135.692L256.736 120.392C257.354 120.413 260.196 119.992 261.002 119.992C262.636 119.991 264.252 120.324 265.753 120.97C267.253 121.616 268.605 122.562 269.727 123.75C270.849 124.937 271.716 126.341 272.276 127.876C272.836 129.41 273.077 131.043 272.983 132.674C272.777 135.706 271.443 138.55 269.243 140.647C267.044 142.744 264.138 143.94 261.1 144C258.777 144.02 256.497 143.364 254.54 142.111C252.583 140.858 251.032 139.063 250.077 136.945C249.226 135.077 247.69 133.607 245.786 132.84C243.882 132.073 241.756 132.067 239.848 132.824L207.848 145.51C201.209 148.141 193.825 148.187 187.153 145.639C180.482 143.09 175.009 138.132 171.815 131.745L171.747 131.612L164.2 117.2L180.386 108.212L194.064 131.986C194.954 133.535 196.338 134.742 197.993 135.413C199.649 136.085 201.482 136.183 203.2 135.692ZM213.245 46.8999L236.875 56.9319L231.034 65.6909L210.787 51.2999C210.283 50.9414 209.928 50.411 209.788 49.8086C209.648 49.2063 209.734 48.5736 210.028 48.0299V48.0299C210.328 47.4749 210.823 47.0515 211.418 46.8425C212.013 46.6335 212.664 46.654 213.245 46.8999V46.8999ZM175.854 41.8999C177.804 36.0502 181.153 30.7651 185.61 26.5034C190.066 22.2417 195.496 19.1324 201.427 17.4453C207.357 15.7583 213.611 15.5446 219.643 16.8228C225.675 18.101 231.304 20.8324 236.041 24.7799L261.494 45.9909L258.94 48.8289L252.249 45.8549C252.157 45.8139 252.064 45.7749 251.971 45.7379L220.68 33.2219C216.583 31.5825 212.03 31.488 207.869 32.9558C203.708 34.4235 200.222 37.3536 198.06 41.2004C195.898 45.0473 195.208 49.5486 196.118 53.8663C197.028 58.1841 199.477 62.0239 203.007 64.6709L222.858 79.5599L221.422 82.4329L170.783 57.1129L175.854 41.8999ZM158.029 69.0799L172.4 94.3409L156.771 103.024L143.121 77.2669C142.593 76.2721 142.269 75.1824 142.166 74.0611C142.063 72.9398 142.184 71.8092 142.521 70.735C142.859 69.6607 143.407 68.6643 144.133 67.8036C144.859 66.9428 145.748 66.2349 146.75 65.7209V65.7209C148.7 64.7175 150.963 64.5067 153.065 65.1327C155.167 65.7587 156.946 67.173 158.029 69.0799V69.0799ZM77.9392 171.03L79.2162 163.368L125.633 183.261L176.155 208.521C178.819 209.842 181.06 211.883 182.624 214.412C184.187 216.942 185.01 219.859 185 222.833V256H161V240C161 238.464 160.558 236.96 159.727 235.669C158.895 234.377 157.709 233.353 156.311 232.717L96.2622 205.417C89.8535 202.495 84.5858 197.544 81.2737 191.328C77.9617 185.112 76.7897 177.979 77.9392 171.03V171.03ZM217 328C213.836 328 210.742 327.061 208.111 325.303C205.48 323.545 203.429 321.046 202.218 318.123C201.007 315.199 200.69 311.982 201.308 308.878C201.925 305.775 203.449 302.924 205.686 300.686C207.924 298.448 210.775 296.925 213.879 296.307C216.982 295.69 220.199 296.007 223.123 297.218C226.047 298.429 228.546 300.48 230.304 303.111C232.062 305.742 233 308.835 233 312C232.995 316.242 231.308 320.309 228.308 323.308C225.309 326.308 221.242 327.995 217 328V328ZM233 284.305C228.139 281.485 222.62 280 217 280C211.381 280 205.861 281.485 201 284.305V264H233V284.305ZM91.4252 397.215L84.3112 386.543L145 350.13V360C145 361.528 145.44 363.025 146.267 364.31L91.4252 397.215ZM81.8842 264.049L65.7292 262.254L145 256.592V305.052L85.4382 265.344C84.3741 264.634 83.1553 264.19 81.8842 264.049ZM145 324.281V331.47L142.77 332.808C142.524 332.585 142.291 332.352 142.042 332.132L142.856 330.722C143.382 329.812 143.723 328.807 143.86 327.765C143.997 326.724 143.928 325.665 143.656 324.65C143.492 324.048 143.257 323.468 142.956 322.922L145 324.281ZM152.6 384.881C152.817 386.838 153.748 388.646 155.215 389.96C156.682 391.273 158.581 392 160.55 392C158.58 392 156.68 392.727 155.212 394.041C153.745 395.355 152.814 397.165 152.598 399.123C151.894 405.511 150.222 411.755 147.642 417.641C146.856 419.437 146.756 421.46 147.363 423.325C147.97 425.189 149.24 426.766 150.933 427.756C149.23 426.782 147.228 426.468 145.308 426.874C143.389 427.279 141.685 428.376 140.521 429.956C136.705 435.134 132.131 439.708 126.953 443.524C125.373 444.688 124.276 446.391 123.871 448.311C123.465 450.231 123.779 452.233 124.753 453.936C123.764 452.243 122.186 450.972 120.321 450.365C118.456 449.759 116.434 449.858 114.637 450.645C108.751 453.225 102.507 454.896 96.1192 455.601C94.1624 455.818 92.3542 456.748 91.0408 458.215C89.7273 459.682 89.0008 461.581 89.0002 463.55C89.0002 461.58 88.2735 459.679 86.9591 458.212C85.6447 456.745 83.8352 455.814 81.8772 455.598C75.4891 454.893 69.2452 453.222 63.3592 450.642C61.5627 449.855 59.5399 449.756 57.6749 450.362C55.81 450.969 54.2328 452.24 53.2432 453.933C54.2171 452.23 54.5311 450.228 54.1255 448.308C53.7199 446.388 52.6229 444.685 51.0432 443.521C45.8651 439.705 41.2912 435.131 37.4752 429.953C36.3114 428.373 34.6077 427.276 32.688 426.871C30.7683 426.465 28.7665 426.779 27.0632 427.753C28.7561 426.763 30.0265 425.186 30.6332 423.322C31.24 421.457 31.1406 419.434 30.3542 417.638C27.7749 411.753 26.1045 405.51 25.4002 399.123C25.1843 397.165 24.2537 395.356 22.7868 394.042C21.3199 392.727 19.4197 392 17.4502 392C19.4201 392 21.3208 391.273 22.7881 389.959C24.2554 388.644 25.1862 386.835 25.4022 384.877C26.1068 378.489 27.7779 372.245 30.3582 366.359C31.1446 364.563 31.244 362.54 30.6372 360.675C30.0305 358.81 28.7601 357.233 27.0672 356.244C28.7705 357.218 30.7723 357.532 32.692 357.126C34.6117 356.721 36.3154 355.624 37.4792 354.044C41.2952 348.866 45.8691 344.292 51.0472 340.476C52.6269 339.312 53.7239 337.608 54.1295 335.689C54.5351 333.769 54.2211 331.767 53.2472 330.064C54.2368 331.757 55.814 333.028 57.6789 333.634C59.5439 334.241 61.5667 334.142 63.3632 333.355C69.248 330.775 75.4906 329.105 81.8772 328.4C83.8349 328.184 85.6441 327.253 86.9584 325.787C88.2728 324.32 88.9997 322.419 89.0002 320.45C89.0001 322.42 89.7269 324.32 91.0412 325.788C92.3556 327.255 94.1651 328.186 96.1232 328.402C102.511 329.107 108.755 330.778 114.641 333.358C116.438 334.145 118.46 334.244 120.325 333.637C122.19 333.031 123.768 331.76 124.757 330.067C123.783 331.768 123.468 333.769 123.872 335.687C124.275 337.606 125.369 339.31 126.946 340.475C127.398 340.808 127.834 341.16 128.276 341.505L68.8842 377.14C67.9555 377.697 67.1496 378.437 66.5153 379.314C65.881 380.192 65.4315 381.189 65.194 382.246C64.9566 383.302 64.936 384.396 65.1337 385.461C65.3314 386.526 65.7432 387.539 66.3442 388.44L82.3442 412.44C83.4848 414.15 85.2399 415.356 87.2456 415.806C89.2513 416.257 91.3535 415.919 93.1162 414.861L120.327 398.535C119.057 404.6 116.051 410.165 111.676 414.553C107.301 418.942 101.746 421.964 95.6848 423.254C89.6239 424.543 83.3188 424.044 77.5364 421.817C71.7541 419.589 66.7434 415.73 63.1139 410.707C59.4844 405.685 57.3924 399.716 57.0922 393.527C56.792 387.338 58.2967 381.194 61.4232 375.844C64.5497 370.494 69.1634 366.168 74.7031 363.392C80.2428 360.615 86.4699 359.508 92.6272 360.205L94.4272 344.305C84.7644 343.205 74.9956 345.067 66.4144 349.643C57.8331 354.219 50.8443 361.294 46.3734 369.93C41.9024 378.566 40.1603 388.357 41.3778 398.006C42.5952 407.654 46.7147 416.706 53.1908 423.961C59.6668 431.216 68.1939 436.333 77.6429 438.634C87.0919 440.935 97.0169 440.312 106.104 436.846C115.19 433.381 123.01 427.238 128.528 419.229C134.045 411.22 137 401.725 137 392C137 390.871 136.946 389.74 136.866 388.609L151.772 379.666C152.111 381.394 152.405 383.131 152.6 384.882V384.881ZM161 352V272H185V328C185 329.317 185.325 330.613 185.947 331.774C186.568 332.936 187.466 333.925 188.562 334.656L209 348.281V352H161ZM265 332.687L245.687 352H225V344C236.807 341.24 248.929 327.375 248.929 320.293C248.929 313.625 249 264 249 264H265V332.687ZM270.333 248H201V222.833C201.02 216.886 199.374 211.052 196.248 205.993C193.121 200.934 188.64 196.853 183.312 194.211L137 171.056V143.83C136.997 140.697 137.915 137.633 139.64 135.018C141.365 132.403 143.82 130.352 146.7 129.121L151.336 127.132L157.536 138.974C162.533 148.921 171.074 156.635 181.476 160.598C191.879 164.561 203.388 164.484 213.736 160.383L239.658 150.107C242.286 153.204 245.555 155.693 249.241 157.402C252.926 159.11 256.938 159.996 261 160H261.237C266.273 159.96 271.204 158.554 275.505 155.934L300.79 190.526L289.356 198.147L263.42 163.23C262.516 162.013 261.285 161.078 259.871 160.534C258.456 159.99 256.916 159.859 255.429 160.156L207.4 170.4L209.233 177.9C209.723 179.904 210.968 181.642 212.708 182.75C214.449 183.858 216.55 184.25 218.573 183.846L253.604 176.84L264.119 191C243.493 186.793 222.109 188.3 202.276 195.36L207.649 210.431C231.291 202.008 257.245 202.845 280.294 212.775L293.531 230.6L270.333 248ZM456.6 335.123C455.896 341.511 454.224 347.755 451.644 353.641C450.858 355.437 450.758 357.46 451.365 359.325C451.972 361.189 453.242 362.766 454.935 363.756C453.232 362.782 451.23 362.468 449.31 362.874C447.391 363.279 445.687 364.376 444.523 365.956C440.707 371.134 436.133 375.708 430.955 379.524C429.375 380.688 428.278 382.391 427.873 384.311C427.467 386.231 427.781 388.233 428.755 389.936C427.766 388.243 426.188 386.972 424.323 386.365C422.458 385.759 420.436 385.858 418.639 386.645C412.753 389.225 406.509 390.896 400.121 391.601C398.164 391.817 396.355 392.748 395.042 394.214C393.728 395.681 393.001 397.581 393 399.55C393 397.58 392.273 395.679 390.959 394.212C389.645 392.745 387.835 391.814 385.877 391.598C379.489 390.893 373.245 389.222 367.359 386.642C365.563 385.855 363.54 385.756 361.675 386.362C359.81 386.969 358.233 388.24 357.243 389.933C358.217 388.23 358.531 386.228 358.126 384.308C357.72 382.388 356.623 380.685 355.043 379.521C349.865 375.705 345.291 371.131 341.475 365.953C340.311 364.373 338.608 363.276 336.688 362.871C334.768 362.465 332.766 362.779 331.063 363.753C332.756 362.763 334.027 361.186 334.633 359.322C335.24 357.457 335.141 355.434 334.354 353.638C331.774 347.752 330.103 341.508 329.398 335.12C329.182 333.163 328.251 331.355 326.785 330.041C325.318 328.727 323.419 328.001 321.45 328C323.42 328 325.321 327.273 326.788 325.959C328.255 324.644 329.186 322.835 329.402 320.877C330.107 314.489 331.778 308.245 334.358 302.359C335.145 300.563 335.244 298.54 334.637 296.675C334.031 294.81 332.76 293.233 331.067 292.244C332.313 292.956 333.729 293.32 335.164 293.298C336.599 293.275 338.002 292.866 339.225 292.115L350.013 306.638C345.206 316.267 343.763 327.229 345.916 337.774C348.068 348.318 353.692 357.838 361.889 364.812C370.086 371.786 380.383 375.812 391.137 376.248C401.89 376.684 412.48 373.504 421.214 367.217C429.949 360.929 436.325 351.896 439.324 341.56C442.323 331.224 441.772 320.181 437.76 310.195C433.747 300.208 426.505 291.854 417.188 286.467C407.871 281.079 397.018 278.968 386.361 280.472L376.009 266.31C379.24 265.413 382.538 264.775 385.87 264.402C387.829 264.188 389.641 263.257 390.957 261.79C392.272 260.322 393 258.421 393 256.45C393 258.42 393.727 260.32 395.041 261.788C396.356 263.255 398.165 264.186 400.123 264.402C406.511 265.107 412.755 266.778 418.641 269.358C420.438 270.145 422.46 270.244 424.325 269.637C426.19 269.031 427.768 267.76 428.757 266.067C427.783 267.77 427.469 269.772 427.875 271.692C428.28 273.611 429.377 275.315 430.957 276.479C436.135 280.295 440.709 284.869 444.525 290.047C445.689 291.627 447.393 292.724 449.312 293.129C451.232 293.535 453.234 293.221 454.937 292.247C453.244 293.236 451.974 294.813 451.367 296.678C450.76 298.543 450.86 300.566 451.646 302.362C454.226 308.248 455.898 314.492 456.602 320.88C456.819 322.837 457.749 324.645 459.216 325.959C460.682 327.272 462.581 327.999 464.55 328C462.581 328 460.68 328.727 459.214 330.042C457.747 331.356 456.816 333.165 456.6 335.123Z" fill="#0707A8"/>
</svg>
